<?xml version="1.0" encoding="utf-8"?>
<!-- Generator: Adobe Illustrator 25.0.0, SVG Export Plug-In . SVG Version: 6.00 Build 0)  -->
<svg version="1.1" id="icon" xmlns="http://www.w3.org/2000/svg" xmlns:xlink="http://www.w3.org/1999/xlink" x="0px" y="0px"
	 viewBox="0 0 128 128" style="enable-background:new 0 0 128 128;" xml:space="preserve">
<style type="text/css">
	.st0{fill:#FFFFFF;}
	.st1{fill:#3F3F3F;}
	.st2{fill:#2DCAFF;}
</style>
<polygon class="st0" points="64,119.2 0,8.8 128,8.8 "/>
<path id="path92" class="st1" d="M124.2,14.5L91,29.5l12.7,21.1l20.5-35.4L124.2,14.5z"/>
<path id="path72" class="st1" d="M37.5,33.3l2.2-24.6H6.2L37.5,33.3z"/>
<path id="path76" class="st2" d="M38.2,63.2l19.5,2.2L42.3,48.1L38.2,63.2z"/>
<path id="path80" class="st2" d="M36.3,41.9L5.2,17.4l25.6,44.4L36.3,41.9z"/>
<path id="path84" class="st2" d="M44.7,35.5l36.6-10.2L77.7,8.8H47.2L44.7,35.5z"/>
<path id="path88" class="st2" d="M79.7,33.4l-32.4,9.1l20.7,23.3L79.7,33.4z"/>
<path id="path96" class="st2" d="M88.3,22.6l30.6-13.8H85.3L88.3,22.6z"/>
<path id="path100" class="st2" d="M76.2,64.6l21.9-4.4l1.3-2.2l-13-21.5L76.2,64.6z"/>
<path id="path104" class="st1" d="M63,73.5l-27.3-3.1l24.9,43.2L63,73.5z"/>
<path id="path108" class="st2" d="M70.3,75.8l-2.2,36.4L82,88.3L70.3,75.8z"/>
<path id="path112" class="st2" d="M77,72l8.9,9.6l7.4-12.8L77,72z"/>
</svg>
